<?xml version="1.0" encoding="UTF-8" standalone="no"?>
<!-- Created with Inkscape (http://www.inkscape.org/) -->

<svg
   width="500"
   height="500"
   viewBox="0 0 132.29166 132.29167"
   version="1.1"
   id="svg1"
   xml:space="preserve"
   inkscape:version="1.3.2 (091e20ef0f, 2023-11-25)"
   sodipodi:docname="bQ.svg"
   xmlns:inkscape="http://www.inkscape.org/namespaces/inkscape"
   xmlns:sodipodi="http://sodipodi.sourceforge.net/DTD/sodipodi-0.dtd"
   xmlns="http://www.w3.org/2000/svg"
   xmlns:svg="http://www.w3.org/2000/svg"><sodipodi:namedview
     id="namedview1"
     pagecolor="#505050"
     bordercolor="#ffffff"
     borderopacity="1"
     inkscape:showpageshadow="false"
     inkscape:pageopacity="0"
     inkscape:pagecheckerboard="1"
     inkscape:deskcolor="#505050"
     inkscape:document-units="px"
     showguides="true"
     inkscape:zoom="1.0507528"
     inkscape:cx="27.59926"
     inkscape:cy="351.65264"
     inkscape:window-width="1872"
     inkscape:window-height="1011"
     inkscape:window-x="0"
     inkscape:window-y="32"
     inkscape:window-maximized="1"
     inkscape:current-layer="layer4"><sodipodi:guide
       position="13.710006,13.174857"
       orientation="0,-1"
       id="guide1"
       inkscape:locked="false" /><sodipodi:guide
       position="66.417711,72.61511"
       orientation="1,0"
       id="guide13"
       inkscape:locked="false" /></sodipodi:namedview><defs
     id="defs1"><inkscape:path-effect
       effect="copy_rotate"
       starting_point="-152.54117,136.79813"
       origin="-170.15076,146.3364"
       id="path-effect96"
       is_visible="true"
       lpeversion="1.2"
       lpesatellites=""
       method="normal"
       num_copies="4"
       starting_angle="31.5"
       rotation_angle="-21"
       gap="-0.01"
       copies_to_360="false"
       mirror_copies="false"
       split_items="false"
       link_styles="false" /><inkscape:path-effect
       effect="copy_rotate"
       starting_point="0,0"
       origin="-165.89002,-33.532195"
       id="path-effect95"
       is_visible="true"
       lpeversion="1.2"
       lpesatellites=""
       method="normal"
       num_copies="4"
       starting_angle="0"
       rotation_angle="90"
       gap="-0.01"
       copies_to_360="true"
       mirror_copies="false"
       split_items="false"
       link_styles="false" /><inkscape:path-effect
       effect="copy_rotate"
       starting_point="0,0"
       origin="-165.89002,-33.532195"
       id="path-effect71"
       is_visible="false"
       lpeversion="1.2"
       lpesatellites=""
       method="normal"
       num_copies="4"
       starting_angle="15"
       rotation_angle="90"
       gap="100"
       copies_to_360="true"
       mirror_copies="false"
       split_items="true"
       link_styles="false" /><inkscape:path-effect
       effect="mirror_symmetry"
       start_point="66.729673,55.378733"
       end_point="66.729673,81.578733"
       center_point="66.729673,68.478733"
       id="path-effect43"
       is_visible="true"
       lpeversion="1.2"
       lpesatellites=""
       mode="free"
       discard_orig_path="false"
       fuse_paths="false"
       oposite_fuse="false"
       split_items="false"
       split_open="false"
       link_styles="false" /><inkscape:path-effect
       effect="fillet_chamfer"
       id="path-effect42"
       is_visible="true"
       lpeversion="1"
       nodesatellites_param="F,0,0,1,0,5,0,1 @ F,0,0,1,0,5,0,1"
       radius="5"
       unit="px"
       method="auto"
       mode="F"
       chamfer_steps="1"
       flexible="false"
       use_knot_distance="true"
       apply_no_radius="true"
       apply_with_radius="true"
       only_selected="false"
       hide_knots="false" /><inkscape:path-effect
       effect="fillet_chamfer"
       id="path-effect41"
       is_visible="true"
       lpeversion="1"
       nodesatellites_param="F,0,0,1,0,2,0,1 @ F,0,0,1,0,2,0,1 @ F,0,0,1,0,2,0,1 @ F,0,0,1,0,2,0,1 @ F,0,0,1,0,2,0,1 @ F,0,0,1,0,2,0,1"
       radius="3"
       unit="px"
       method="auto"
       mode="F"
       chamfer_steps="1"
       flexible="false"
       use_knot_distance="true"
       apply_no_radius="true"
       apply_with_radius="true"
       only_selected="false"
       hide_knots="false" /><inkscape:path-effect
       effect="mirror_symmetry"
       start_point="3435.2784,1800.7793"
       end_point="3435.2784,2619.1307"
       center_point="3435.2784,2209.955"
       id="path-effect40"
       is_visible="true"
       lpeversion="1.2"
       lpesatellites=""
       mode="free"
       discard_orig_path="false"
       fuse_paths="false"
       oposite_fuse="false"
       split_items="false"
       split_open="false"
       link_styles="false" /><inkscape:path-effect
       effect="mirror_symmetry"
       start_point="65.540209,9.877504"
       end_point="65.540209,118.9642"
       center_point="65.540209,64.420852"
       id="path-effect13"
       is_visible="true"
       lpeversion="1.2"
       lpesatellites=""
       mode="free"
       discard_orig_path="false"
       fuse_paths="false"
       oposite_fuse="false"
       split_items="false"
       split_open="false"
       link_styles="false" /><inkscape:path-effect
       effect="mirror_symmetry"
       start_point="65.894882,24.0243"
       end_point="65.894882,119.29025"
       center_point="65.894882,71.657275"
       id="path-effect6"
       is_visible="true"
       lpeversion="1.2"
       lpesatellites=""
       mode="free"
       discard_orig_path="false"
       fuse_paths="false"
       oposite_fuse="false"
       split_items="false"
       split_open="false"
       link_styles="false" /><inkscape:path-effect
       effect="pts2ellipse"
       id="path-effect76"
       is_visible="true"
       lpeversion="1"
       method="auto"
       gen_arc="false"
       arc_other="false"
       slice_arc="false"
       gen_isometric_frame="false"
       draw_axes="false"
       gen_perspective_frame="false"
       draw_perspective_axes="false"
       rot_axes="0"
       draw_ori_path="false" /><inkscape:path-effect
       effect="fillet_chamfer"
       id="path-effect75"
       is_visible="true"
       lpeversion="1"
       nodesatellites_param="F,0,0,1,0,0,0,1 @ F,0,0,1,0,0,0,1 @ F,0,0,1,0,0,0,1 @ F,0,0,1,0,0,0,1 @ F,0,0,1,0,0,0,1 @ F,0,0,1,0,0,0,1 @ F,0,0,1,0,0,0,1 @ F,0,0,1,0,0,0,1 @ F,0,0,1,0,0,0,1 @ F,0,0,1,0,0,0,1 @ F,0,0,1,0,0,0,1 @ F,0,0,1,0,0,0,1 @ F,0,0,1,0,0,0,1 @ F,0,0,1,0,0,0,1 @ F,0,0,1,0,0,0,1 @ F,0,0,1,0,0,0,1 @ F,0,0,1,0,0,0,1 @ F,0,0,1,0,0,0,1 @ F,0,0,1,0,0,0,1 @ F,0,0,1,0,0,0,1 @ F,0,0,1,0,0,0,1 @ F,0,0,1,0,0,0,1 @ F,0,0,1,0,0,0,1 @ F,0,0,1,0,0,0,1 @ F,0,0,1,0,0,0,1 @ F,0,0,1,0,0,0,1 @ F,0,0,1,0,0,0,1 @ F,0,0,1,0,0,0,1 @ F,0,0,1,0,0,0,1 @ F,0,0,1,0,0,0,1 @ F,0,0,1,0,0,0,1 @ F,0,0,1,0,0,0,1 @ F,0,0,1,0,0,0,1 @ F,0,0,1,0,0,0,1 @ F,0,0,1,0,0,0,1"
       radius="0"
       unit="px"
       method="auto"
       mode="F"
       chamfer_steps="1"
       flexible="false"
       use_knot_distance="true"
       apply_no_radius="true"
       apply_with_radius="true"
       only_selected="false"
       hide_knots="false" /></defs><g
     inkscape:groupmode="layer"
     id="layer4"
     inkscape:label="bQ"
     style="display:inline"><path
       id="path63"
       style="display:none;fill:#f9f9f9;fill-opacity:1;stroke:#000000;stroke-width:2.11667;stroke-linecap:round;stroke-linejoin:round;stroke-dasharray:none"
       inkscape:label="silueta-2"
       d="M 66.146866,9.0779987 56.402758,22.556246 66.146866,36.084619 75.890974,22.556246 Z M 89.481119,93.566179 110.06734,60.98278 l 2.1264,-6.883961 1.6921,-6.662361 -0.43499,-4.176886 -12.19142,7.425651 2.01765,7.347679 -2.30765,3.921772 -8.965901,11.203792 -3.938871,2.82882 -0.217496,-32.904173 7.817553,-8.36403 -9.07397,-19.236106 -9.920017,15.358107 4.60367,10.264045 -2.8637,13.811694 -5.485283,12.949234 -3.890994,8.474831 -2.887639,2.201636 -2.887639,-2.201636 -3.890993,-8.474831 -5.485283,-12.949234 -2.863701,-13.811694 4.60367,-10.264045 -9.920016,-15.358107 -9.073971,19.236106 7.817554,8.36403 -0.217496,32.904173 -3.938871,-2.82882 -8.965223,-11.203792 -2.307648,-3.921772 2.017653,-7.347679 -12.191417,-7.425651 -0.434992,4.176886 1.691409,6.662361 2.127086,6.883961 20.585541,32.583399 9.573762,3.922443 -19.331378,6.682798 -3.221508,13.38264 H 102.46041 L 99.238903,104.17142 79.907524,97.488622 Z"
       sodipodi:nodetypes="ccccccccccccccccccccccccccccccccccccccccccccccccc"
       sodipodi:insensitive="true" /><path
       id="path47"
       style="display:inline;fill:#4d4d4d;fill-opacity:1;stroke:none;stroke-width:2.11667;stroke-linecap:round;stroke-linejoin:round;stroke-dasharray:none"
       inkscape:label="fondo"
       d="m 66.146866,31.302998 -9.744108,13.478248 9.744108,13.528373 9.744108,-13.528373 z m 23.334253,62.263181 20.586221,-32.583399 2.1264,-6.883961 1.6921,-6.662361 -0.43499,-4.176886 -12.19142,7.425651 2.01765,7.347679 -2.30765,3.921772 -8.965901,11.203792 -3.938871,2.82882 -0.217496,-32.904173 7.817553,-8.36403 -9.07397,-19.236106 -9.920017,15.358107 4.60367,10.264045 -2.8637,13.811694 -5.485283,12.949234 -3.890994,8.474831 -2.887639,2.201636 -2.887639,-2.201636 -3.890993,-8.474831 -5.485283,-12.949234 -2.863701,-13.811694 4.60367,-10.264045 -9.920016,-15.358107 -9.073971,19.236106 7.817554,8.36403 -0.217496,32.904173 -3.938871,-2.82882 -8.965223,-11.203792 -2.307648,-3.921772 2.017653,-7.347679 -12.191417,-7.425651 -0.434992,4.176886 1.691409,6.662361 2.127086,6.883961 20.585541,32.583399 9.573762,3.922443 -19.331378,6.682798 -3.221508,13.38264 H 102.46041 L 99.238903,104.17142 79.907524,97.488622 Z"
       sodipodi:nodetypes="ccccccccccccccccccccccccccccccccccccccccccccccccc" /><g
       id="g53"
       inkscape:label="sombras"
       style="display:inline;fill:#666666"><path
         style="display:inline;fill:#666666;fill-opacity:1;stroke:none;stroke-width:2.11667;stroke-linecap:square;stroke-dasharray:none;stroke-opacity:1"
         d="M 66.192658,33.202417 66.4603,57.751313 75.392014,44.881551 Z"
         id="path49" /><path
         style="display:inline;fill:#666666;fill-opacity:1;stroke:none;stroke-width:2.11667;stroke-linecap:square;stroke-dasharray:none;stroke-opacity:1"
         d="m 86.778435,16.829612 -5.437032,56.516816 6.591729,3.097001 -0.290584,-33.605898 7.700544,-8.196728 z"
         id="path50" /><path
         style="display:inline;fill:#666666;fill-opacity:1;stroke:none;stroke-width:2.11667;stroke-linecap:square;stroke-dasharray:none;stroke-opacity:1"
         d="m 113.39005,43.945571 -4.88644,2.195428 -1.81999,13.337746 -16.494616,28.017526 -1.032351,5.863656 21.396357,-31.864686 3.59409,-13.964031 z"
         id="path52" /><path
         style="display:inline;fill:#666666;fill-opacity:1;stroke:none;stroke-width:2.11667;stroke-linecap:square;stroke-dasharray:none;stroke-opacity:1"
         d="m 26.214054,48.646127 -0.917641,9.476819 10.522293,15.725884 5.834677,2.835476 1.22352,-1.644851 -2.852335,-1.982079 -9.30642,-11.878725 -1.399405,-2.807949 2.164109,-7.425912 z"
         id="path53" /><path
         style="display:inline;fill:#666666;fill-opacity:1;stroke:none;stroke-width:2.11667;stroke-linecap:square;stroke-dasharray:none;stroke-opacity:1"
         d="m 45.698655,17.153076 4.18292,42.201791 8.480541,18.35489 7.18819,1.410853 -2.722338,-3.392932 -8.954656,-20.880665 -2.8141,-13.723157 4.312914,-9.958578 z"
         id="path51" /><path
         style="fill:#666666;fill-opacity:1;stroke:none;stroke-width:2.11667;stroke-linecap:square;stroke-dasharray:none;stroke-opacity:1"
         d="m 80.117882,97.47551 -12.877594,-0.09636 18.658733,7.9352 3.227041,11.37632 12.411108,0.35787 -2.362927,-13.11751 z"
         id="path54"
         sodipodi:nodetypes="ccccccc" /></g><path
       id="path48"
       style="display:inline;fill:none;fill-opacity:1;stroke:#000000;stroke-width:2.11667;stroke-linecap:round;stroke-linejoin:round;stroke-dasharray:none"
       inkscape:label="silueta"
       d="m 66.146866,31.302998 -9.744108,13.478248 9.744108,13.528373 9.744108,-13.528373 z m 23.334253,62.263181 20.586221,-32.583399 2.1264,-6.883961 1.6921,-6.662361 -0.43499,-4.176886 -12.19142,7.425651 2.01765,7.347679 -2.30765,3.921772 -8.965901,11.203792 -3.938871,2.82882 -0.217496,-32.904173 7.817553,-8.36403 -9.07397,-19.236106 -9.920017,15.358107 4.60367,10.264045 -2.8637,13.811694 -5.485283,12.949234 -3.890994,8.474831 -2.887639,2.201636 -2.887639,-2.201636 -3.890993,-8.474831 -5.485283,-12.949234 -2.863701,-13.811694 4.60367,-10.264045 -9.920016,-15.358107 -9.073971,19.236106 7.817554,8.36403 -0.217496,32.904173 -3.938871,-2.82882 -8.965223,-11.203792 -2.307648,-3.921772 2.017653,-7.347679 -12.191417,-7.425651 -0.434992,4.176886 1.691409,6.662361 2.127086,6.883961 20.585541,32.583399 9.573762,3.922443 -19.331378,6.682798 -3.221508,13.38264 H 102.46041 L 99.238903,104.17142 79.907524,97.488622 Z"
       sodipodi:nodetypes="ccccccccccccccccccccccccccccccccccccccccccccccccc" /></g></svg>
