<?xml version="1.0" encoding="UTF-8" standalone="no"?>
<svg
   viewBox="6150 1350 1333 1333"
   version="1.1"
   id="svg4"
   sodipodi:docname="wK.svg"
   inkscape:version="1.3.2 (091e20ef0f, 2023-11-25)"
   xml:space="preserve"
   xmlns:inkscape="http://www.inkscape.org/namespaces/inkscape"
   xmlns:sodipodi="http://sodipodi.sourceforge.net/DTD/sodipodi-0.dtd"
   xmlns="http://www.w3.org/2000/svg"
   xmlns:svg="http://www.w3.org/2000/svg"><defs
     id="defs4"><inkscape:path-effect
       effect="mirror_symmetry"
       start_point="6545.1958,1859.456"
       end_point="6545.1958,1912.6494"
       center_point="6545.1958,1886.0527"
       id="path-effect59"
       is_visible="true"
       lpeversion="1.2"
       lpesatellites=""
       mode="free"
       discard_orig_path="false"
       fuse_paths="false"
       oposite_fuse="false"
       split_items="false"
       split_open="false"
       link_styles="false" /><inkscape:path-effect
       effect="mirror_symmetry"
       start_point="6545.1958,1859.456"
       end_point="6545.1958,1912.6494"
       center_point="6545.1958,1886.0527"
       id="path-effect42"
       is_visible="true"
       lpeversion="1.2"
       lpesatellites=""
       mode="free"
       discard_orig_path="false"
       fuse_paths="false"
       oposite_fuse="false"
       split_items="false"
       split_open="false"
       link_styles="false" /><inkscape:path-effect
       effect="mirror_symmetry"
       start_point="6545.1958,1859.456"
       end_point="6545.1958,1912.6494"
       center_point="6545.1958,1886.0527"
       id="path-effect23"
       is_visible="true"
       lpeversion="1.2"
       lpesatellites=""
       mode="free"
       discard_orig_path="false"
       fuse_paths="false"
       oposite_fuse="false"
       split_items="false"
       split_open="false"
       link_styles="false" /><inkscape:path-effect
       effect="mirror_symmetry"
       start_point="6829.8562,1470.6691"
       end_point="6829.8562,2596.7371"
       center_point="6829.8562,2033.7031"
       id="path-effect17"
       is_visible="true"
       lpeversion="1.2"
       lpesatellites=""
       mode="free"
       discard_orig_path="false"
       fuse_paths="false"
       oposite_fuse="false"
       split_items="false"
       split_open="false"
       link_styles="false" /><inkscape:path-effect
       effect="mirror_symmetry"
       start_point="5686.7793,1583.3851"
       end_point="5686.7793,2182.2541"
       center_point="5686.7793,1882.8196"
       id="path-effect3"
       is_visible="true"
       lpeversion="1.2"
       lpesatellites=""
       mode="free"
       discard_orig_path="false"
       fuse_paths="false"
       oposite_fuse="false"
       split_items="false"
       split_open="false"
       link_styles="false" /><inkscape:path-effect
       effect="fillet_chamfer"
       id="path-effect1"
       is_visible="true"
       lpeversion="1"
       nodesatellites_param="F,0,0,1,0,19,0,1 @ F,0,0,1,0,19,0,1 @ F,0,0,1,0,19,0,1 @ F,0,0,1,0,19,0,1 @ F,0,0,1,0,19,0,1 @ F,0,0,1,0,19,0,1 @ F,0,0,1,0,19,0,1 @ F,0,0,1,0,19,0,1 @ F,0,0,1,0,19,0,1 @ F,0,0,1,0,19,0,1 @ F,0,0,1,0,19,0,1 @ F,0,0,1,0,19,0,1 @ F,0,0,1,0,19,0,1 @ F,0,0,1,0,19,0,1 @ F,0,0,1,0,19,0,1 @ F,0,0,1,0,19,0,1 @ F,0,0,1,0,19,0,1 @ F,0,0,1,0,19,0,1 @ F,0,0,1,0,19,0,1 @ F,0,0,1,0,19,0,1 @ F,0,0,1,0,19,0,1 @ F,0,0,1,0,19,0,1 @ F,0,0,1,0,19,0,1 @ F,0,0,1,0,19,0,1 @ F,0,0,1,0,19,0,1 @ F,0,0,1,0,19,0,1 @ F,0,0,1,0,19,0,1 @ F,0,0,1,0,19,0,1 @ F,0,0,1,0,19,0,1 @ F,0,0,1,0,19,0,1 @ F,0,0,1,0,19,0,1 @ F,0,0,1,0,19,0,1 @ F,0,0,1,0,19,0,1 @ F,0,0,1,0,19,0,1 @ F,0,0,1,0,19,0,1 @ F,0,0,1,0,19,0,1 @ F,0,0,1,0,19,0,1 @ F,0,0,1,0,19,0,1 @ F,0,0,1,0,19,0,1"
       radius="18"
       unit="px"
       method="auto"
       mode="F"
       chamfer_steps="1"
       flexible="false"
       use_knot_distance="true"
       apply_no_radius="true"
       apply_with_radius="true"
       only_selected="false"
       hide_knots="false" /><inkscape:path-effect
       effect="mirror_symmetry"
       start_point="6547.9646,1924.652"
       end_point="6547.9646,1939.4502"
       center_point="6547.9646,1932.0511"
       id="path-effect8"
       is_visible="true"
       lpeversion="1.2"
       lpesatellites=""
       mode="free"
       discard_orig_path="false"
       fuse_paths="false"
       oposite_fuse="false"
       split_items="false"
       split_open="false"
       link_styles="false" /><inkscape:path-effect
       effect="mirror_symmetry"
       start_point="6548.0265,1953.8915"
       end_point="6548.0265,1991.5347"
       center_point="6548.0265,1972.7131"
       id="path-effect7"
       is_visible="true"
       lpeversion="1.2"
       lpesatellites=""
       mode="free"
       discard_orig_path="false"
       fuse_paths="false"
       oposite_fuse="false"
       split_items="false"
       split_open="false"
       link_styles="false" /><inkscape:path-effect
       effect="mirror_symmetry"
       start_point="6545.1958,1859.456"
       end_point="6545.1958,1912.6494"
       center_point="6545.1958,1886.0527"
       id="path-effect6"
       is_visible="true"
       lpeversion="1.2"
       lpesatellites=""
       mode="free"
       discard_orig_path="false"
       fuse_paths="false"
       oposite_fuse="false"
       split_items="false"
       split_open="false"
       link_styles="false" /><inkscape:path-effect
       effect="mirror_symmetry"
       start_point="6803.4923,1620.7085"
       end_point="6803.4923,1812.1507"
       center_point="6803.4923,1716.4296"
       id="path-effect5"
       is_visible="true"
       lpeversion="1.2"
       lpesatellites=""
       mode="free"
       discard_orig_path="false"
       fuse_paths="false"
       oposite_fuse="false"
       split_items="false"
       split_open="false"
       link_styles="false" /><inkscape:path-effect
       effect="fillet_chamfer"
       id="path-effect11"
       is_visible="true"
       lpeversion="1"
       nodesatellites_param="F,0,0,1,0,0,0,1 @ F,0,0,1,0,20.437913,0,1 @ F,0,0,1,0,0,0,1 @ F,0,0,1,0,0,0,1"
       radius="0"
       unit="px"
       method="auto"
       mode="F"
       chamfer_steps="1"
       flexible="false"
       use_knot_distance="true"
       apply_no_radius="true"
       apply_with_radius="true"
       only_selected="false"
       hide_knots="false" /><inkscape:path-effect
       effect="mirror_symmetry"
       start_point="5686.1366,1788.3181"
       end_point="5686.1366,1866.5235"
       center_point="5686.1366,1827.4208"
       id="path-effect12"
       is_visible="true"
       lpeversion="1.2"
       lpesatellites=""
       mode="free"
       discard_orig_path="false"
       fuse_paths="false"
       oposite_fuse="false"
       split_items="false"
       split_open="false"
       link_styles="false" /></defs><sodipodi:namedview
     id="namedview4"
     pagecolor="#505050"
     bordercolor="#ffffff"
     borderopacity="1"
     inkscape:showpageshadow="0"
     inkscape:pageopacity="0"
     inkscape:pagecheckerboard="1"
     inkscape:deskcolor="#505050"
     inkscape:zoom="0.5"
     inkscape:cx="454"
     inkscape:cy="619"
     inkscape:window-width="1872"
     inkscape:window-height="1011"
     inkscape:window-x="0"
     inkscape:window-y="32"
     inkscape:window-maximized="1"
     inkscape:current-layer="g58"
     showguides="true"><sodipodi:guide
       position="101.11959,70.046295"
       orientation="0,-1"
       id="guide1"
       inkscape:locked="false" /><sodipodi:guide
       position="294.26564,73.763915"
       orientation="0,-1"
       id="guide42"
       inkscape:locked="false" /></sodipodi:namedview><g
     id="g3"
     transform="translate(1.5,-2.5)"
     style="display:none;opacity:1"
     inkscape:label="bK-original"
     sodipodi:insensitive="true"><path
       fill="#565252"
       d="m 6430,2500 v -100 h 237 l 17,-57 16,-58 -72,-153 -72,-154 24,-19 c 58,-44 130,-63 240,-64 98,0 109,2 170,32 36,17 71,36 78,41 11,7 -1,41 -59,161 l -73,152 15,57 15,57 117,3 117,3 v 199 h -770 z m 333,-705 c 4,-25 9,-56 13,-70 6,-24 5,-25 -40,-19 l -46,7 v -105 l 46,7 c 41,6 45,5 40,-12 -3,-10 -8,-30 -12,-45 l -6,-28 h 115 l -6,45 -7,45 40,-6 40,-7 v 106 l -41,-7 -42,-7 6,38 c 4,21 9,53 13,71 l 6,32 h -125 z"
       id="path1"
       style="display:inline" /><path
       fill="#444242"
       d="m 7200,2500 v -99 l -117,-3 -117,-3 -15,-57 -15,-57 72,-150 c 40,-83 72,-151 72,-153 0,-2 -45,-2 -99,0 -65,2 -101,7 -104,15 -2,7 -17,74 -32,150 l -28,137 h -58 c -43,0 -58,4 -63,16 -8,21 -8,24 4,24 5,0 39,18 75,40 55,34 74,40 120,40 h 55 v 200 h 250 z m -324,-692 c -4,-18 -9,-50 -13,-71 l -6,-38 42,7 41,7 v -106 l -40,7 -40,6 7,-45 c 6,-44 5,-45 -23,-45 h -29 v 310 h 34 c 32,0 33,-1 27,-32 z m -179,-148 c 0,-30 -2,-43 -4,-27 -2,15 -2,39 0,55 2,15 4,2 4,-28 z"
       id="path2"
       style="display:inline" /><path
       fill="#565252"
       d="m 6950,2500 v -100 h -55 c -46,0 -65,-6 -120,-40 -36,-22 -69,-40 -74,-40 -4,0 -14,18 -21,40 l -13,40 h -237 v 200 h 520 z m -105,-357 c 15,-76 30,-144 33,-150 3,-9 33,-13 101,-13 89,-1 94,-2 76,-16 -22,-17 -81,-44 -131,-61 -46,-15 -191,-9 -249,11 -47,16 -115,55 -115,66 0,3 31,70 68,150 l 67,145 61,3 61,3 z m -29,-316 c 2,-7 3,-76 2,-152 l -3,-140 -29,-3 c -26,-3 -28,-1 -22,22 3,14 9,37 12,51 5,19 3,24 -7,21 -8,-2 -26,-7 -42,-10 -27,-6 -27,-6 -27,44 v 50 l 42,-6 41,-7 -6,39 c -4,21 -9,54 -13,72 -6,30 -5,32 20,32 15,0 29,-6 32,-13 z"
       id="path3"
       style="display:inline" /><path
       fill="none"
       stroke="#000000"
       stroke-width="24"
       d="m 6430,2500 v -100 h 237 l 17,-57 16,-58 -72,-153 -72,-154 24,-19 c 58,-44 130,-63 240,-64 98,0 109,2 170,32 36,17 71,36 78,41 11,7 -1,41 -59,161 l -73,152 15,57 15,57 117,3 117,3 v 199 h -770 z m 333,-705 c 4,-25 9,-56 13,-70 6,-24 5,-25 -40,-19 l -46,7 v -105 l 46,7 c 41,6 45,5 40,-12 -3,-10 -8,-30 -12,-45 l -6,-28 h 115 l -6,45 -7,45 40,-6 40,-7 v 106 l -41,-7 -42,-7 6,38 c 4,21 9,53 13,71 l 6,32 h -125 z"
       id="path4"
       style="display:inline" /></g><g
     inkscape:groupmode="layer"
     id="layer10"
     inkscape:label="wK-Saladin"
     style="display:none;opacity:0.275"
     transform="translate(16.059704,4)"
     sodipodi:insensitive="true"><path
       id="path5"
       style="display:inline;fill:#f9f9f9;stroke:none;stroke-width:7.21667;stroke-linecap:round;stroke-linejoin:round;stroke-dasharray:none"
       d="m 5687.2914,1559.4892 -37.1983,71.2686 24.7985,30.8527 -5.4567,17.6919 -33.9615,-0.7646 -7.5782,-47.9051 -46.8888,17.9692 11.828,51.7148 -23.3515,11.4724 -12.8772,-51.4454 -36.9682,29.8915 20.5799,85.8154 10.412,18.1508 46.2367,7.5961 6.9722,167.9624 57.5331,47.9686 -7.6367,62.0728 -45.178,-0.099 -102.0713,21.6246 -25.0763,68.3933 h 411.7657 l -28.0708,-69.2882 -92.0523,-19.0531 -48.9539,0.2906 -9.9798,-63.9406 56.6266,-47.9686 6.9712,-167.9624 46.2356,-7.5961 10.4141,-18.1508 20.5789,-85.8154 -36.9693,-29.8915 -12.8771,51.4454 -23.3515,-11.4724 11.83,-51.7148 -46.8889,-17.9692 -7.5791,47.9051 -33.9605,0.7646 -5.4568,-17.6919 24.7986,-30.8527 z"
       transform="matrix(1.9435496,0,0,1.9363645,-4253.0927,-1602.2532)"
       inkscape:label="figura"
       sodipodi:nodetypes="cccccccccccccccccccccccccccccccccccccccc" /><g
       id="g16"
       style="display:inline;stroke-width:0.515476"
       transform="matrix(1.9435496,0,0,1.9363645,-5921.6667,-1710.7618)"
       inkscape:label="sombras-crown"><path
         style="display:inline;fill:#cccccc;fill-opacity:1;stroke:none;stroke-width:12;stroke-linecap:square;stroke-dasharray:none;stroke-opacity:0.368771"
         d="m 6803.3193,1436.8917 -8.6122,200.4488 35.7736,18.3636 -13.1168,-39.8275 50.348,-60.695 z"
         id="path10"
         transform="matrix(0.5145225,0,0,0.51643169,3046.8308,883.49162)" /><path
         style="display:inline;fill:#cccccc;fill-opacity:1;stroke:none;stroke-width:12;stroke-linecap:square;stroke-dasharray:none;stroke-opacity:0.368771"
         d="m 6961.8151,1572.8352 -13.7545,99.6779 38.7272,20.0724 17.7696,-100.6594 z"
         id="path11"
         transform="matrix(0.5145225,0,0,0.51643169,3046.8308,883.49162)"
         sodipodi:nodetypes="ccccc" /><path
         style="display:inline;fill:#cccccc;fill-opacity:1;stroke:none;stroke-width:12;stroke-linecap:square;stroke-dasharray:none;stroke-opacity:0.368771"
         d="m 7094.7943,1643.6862 -34.7583,162.228 -14.709,24.2415 17.5197,36.4254 22.9067,-31.282 39.7237,-165.1792 z"
         id="path13"
         transform="matrix(0.5145225,0,0,0.51643169,3046.8308,883.49162)" /><path
         style="display:inline;fill:#cccccc;fill-opacity:1;stroke:none;stroke-width:12;stroke-linecap:square;stroke-dasharray:none;stroke-opacity:0.368771"
         d="m 6648.0898,1574.9248 35.5077,-18.2548 14.1469,90.0939 -27.919,23.0609 z"
         id="path15"
         transform="matrix(0.5145225,0,0,0.51643169,3046.8308,883.49162)" /><path
         style="display:inline;fill:#cccccc;fill-opacity:1;stroke:none;stroke-width:12;stroke-linecap:square;stroke-dasharray:none;stroke-opacity:0.368771"
         d="m 6511.3052,1642.5479 33.5872,-29.0476 26.0921,96.4599 -25.53,28.9633 z"
         id="path16"
         transform="matrix(0.5145225,0,0,0.51643169,3046.8308,883.49162)" /></g><g
       id="g13"
       inkscape:label="face"
       transform="matrix(1.9435496,0,0,1.9363645,-5921.6667,-1710.7618)"
       style="display:inline;stroke-width:0.515476"><path
         style="fill:#cccccc;fill-opacity:1;stroke:#000000;stroke-width:6.495;stroke-linecap:round;stroke-linejoin:round;stroke-dasharray:none;stroke-opacity:1"
         d="m 6484.8963,1859.456 c -6.945,15.9536 -4.0311,34.4126 0.1493,53.1934 l 36.9466,-23.2581 z m 120.599,0 c 6.945,15.9536 4.0311,34.4126 -0.1493,53.1934 l -36.9466,-23.2581 z"
         id="path6"
         sodipodi:nodetypes="cccc"
         inkscape:path-effect="#path-effect6"
         inkscape:original-d="m 6484.8963,1859.456 c -6.945,15.9536 -4.0311,34.4126 0.1493,53.1934 l 36.9466,-23.2581 z" /><path
         style="fill:#000000;stroke:none;stroke-width:6.495;stroke-linecap:round;stroke-linejoin:round;stroke-dasharray:none"
         d="m 6482.4564,1992.1929 65.5701,-37.6431 65.5701,37.6431 -65.5701,-17.7013 z"
         id="path7"
         sodipodi:nodetypes="ccccc" /><path
         style="display:none;fill:#1a1a1a;stroke:none;stroke-width:6.495;stroke-linecap:round;stroke-linejoin:round;stroke-dasharray:none"
         d="m 6526.5487,1939.7829 2.4118,-6.9871 13.0098,-7.51 5.1933,7.3991 -4.6828,3.4381 -8.9255,3.961 z m 42.8318,0 -2.4118,-6.9871 -13.0098,-7.51 -5.1933,7.3991 4.6828,3.4381 8.9255,3.961 z"
         id="path8"
         inkscape:label="nariz-rey" /><path
         id="path12"
         style="display:inline;fill:#1a1a1a;stroke:none;stroke-width:6.495;stroke-linecap:round;stroke-linejoin:round;stroke-dasharray:none"
         d="m 6552.9545,1990.3654 -4.2949,0.012 -5.4082,2.123 -5.6641,0.061 -5.9199,-0.9512 -3.8711,2.414 -6.1797,6.2403 -8.5957,2.3183 2.5137,2.2871 2.5586,2.2735 4.5859,2.3652 3.2559,3.3164 3.7402,3.2324 6.8535,2.2227 12.2051,0.623 7.3379,0.076 6.1562,-4.8437 3.7481,-2.8418 6.373,-4.5977 4.4746,-4.498 -2.8886,-0.2305 -4.5489,-1.4844 -10.4824,-6.3125 z m -2.5078,10.42 4.5566,1.7929 2.7012,1.4121 3.5234,1.6133 2.4395,1.3223 c 0,0 -2.092,0.9903 -2.6895,1.1191 -0.5976,0.1289 -4.1264,2.1344 -4.8359,2.336 -0.7096,0.2017 -3.7149,0.2461 -3.7149,0.2461 l -3.1679,-0.8672 c 0,0 -2.2788,-0.7839 -2.8887,-0.6719 -0.61,0.1121 -2.3212,1.5787 -3.1055,1.5059 -0.7842,-0.073 -3.9589,-0.8907 -3.9589,-0.8907 l -2.9434,-1.916 -2.291,-0.123 -2.6074,-0.3926 -3.1817,-1.6797 2.4707,-2.9512 4.1836,-1.3164 3.168,0.9297 3.0801,1.377 4.0273,-1.0352 2.0117,-1.6973 z" /><path
         style="display:inline;fill:#000000;fill-opacity:1;stroke:none;stroke-width:2.78357;stroke-linecap:round;stroke-linejoin:round;stroke-dasharray:none;stroke-opacity:1"
         d="m 6797.8237,2005.2116 18.3598,50.2381 18.3599,-50.2381 z"
         id="path14"
         sodipodi:nodetypes="cccc"
         transform="translate(-270.37342,64.279769)" /></g><path
       style="display:inline;fill:#cccccc;fill-opacity:1;stroke:none;stroke-width:14;stroke-linecap:round;stroke-linejoin:round;stroke-dasharray:none;stroke-opacity:1"
       d="m 6645.059,2427.233 -191.1043,40.6679 527.6483,9.1892 z"
       id="path89"
       sodipodi:nodetypes="cccc" /><path
       style="display:inline;fill:#cccccc;fill-opacity:1;stroke:none;stroke-width:14;stroke-linecap:round;stroke-linejoin:round;stroke-dasharray:none;stroke-opacity:1"
       d="m 7077.368,2451.4666 24.946,146.9655 97.4542,0.3908 -52.4982,-133.7394 z"
       id="path90"
       sodipodi:nodetypes="ccccc" /><path
       style="display:inline;fill:#cccccc;fill-opacity:1;stroke:none;stroke-width:14;stroke-linecap:round;stroke-linejoin:round;stroke-dasharray:none;stroke-opacity:1"
       d="m 6450.0702,2467.124 -47.2852,130.6428 52.7314,0.7174 36.6234,-139.0063 z"
       id="path91"
       sodipodi:nodetypes="ccccc" /><path
       id="path23"
       style="display:none;opacity:0.236;fill:none;fill-opacity:1;stroke:#000000;stroke-width:12.6;stroke-linecap:round;stroke-linejoin:round"
       d="m 6648.406,1422.9019 -67.4803,140.7918 58.1361,61.2168 -1.6175,240.8264 -29.2922,-20.7024 -66.674,-82.0007 -17.1618,-28.708 15.0052,-53.7777 -90.6632,-54.3441 -3.2349,30.57 12.5814,48.7623 15.8139,50.3822 102.7032,238.4796 1.4384,51.0277 54.0021,17.1435 17.882,230.0737 82.7011,92.5758 3.0827,41.621 h -94.2699 l -190.961,38.9766 -39.209,143.4395 h 770.0547 l -30.7304,-143.4395 -188.2754,-38.9766 h -92.1224 l 2.1187,-41.621 78.8025,-92.5758 17.8822,-230.0737 54.0021,-17.1435 1.4384,-51.0277 102.7032,-238.4796 15.8139,-50.3822 12.5814,-48.7623 -3.2349,-30.57 -90.6632,54.3441 15.0052,53.7777 -17.1618,28.708 -66.674,82.0007 -29.2922,20.7024 -1.6175,-240.8264 58.1361,-61.2168 -67.4803,-140.7918 -73.7712,112.4078 34.2352,75.1256 -21.2958,101.0859 -40.7932,94.7771 -28.9345,62.0256 -21.4748,16.113 -21.4748,-16.113 -28.9345,-62.0256 -40.7932,-94.7771 -21.2958,-101.0859 34.2352,-75.1256 z"
       sodipodi:nodetypes="cccccccccccccccccccccccccccccccccccccccccccccccccccccc"
       inkscape:label="silueta" /><path
       id="path9"
       style="display:inline;fill:none;stroke:#000000;stroke-width:7.21667;stroke-linecap:round;stroke-linejoin:round;stroke-dasharray:none"
       d="m 5687.2914,1559.4892 -37.1983,71.2686 24.7985,30.8527 -5.4567,17.6919 -33.9615,-0.7646 -7.5782,-47.9051 -46.8888,17.9692 11.828,51.7148 -23.3515,11.4724 -12.8772,-51.4454 -36.9682,29.8915 20.5799,85.8154 10.412,18.1508 46.2367,7.5961 6.9722,167.9624 57.5331,47.9686 -7.6367,62.0728 -45.178,-0.099 -102.0713,21.6246 -25.0763,68.3933 h 411.7657 l -28.0708,-69.2882 -92.0523,-19.0531 -48.9539,0.2906 -9.9798,-63.9406 56.6266,-47.9686 6.9712,-167.9624 46.2356,-7.5961 10.4141,-18.1508 20.5789,-85.8154 -36.9693,-29.8915 -12.8771,51.4454 -23.3515,-11.4724 11.83,-51.7148 -46.8889,-17.9692 -7.5791,47.9051 -33.9605,0.7646 -5.4568,-17.6919 24.7986,-30.8527 z"
       transform="matrix(1.9435496,0,0,1.9363645,-4253.0927,-1602.2532)"
       inkscape:label="figura"
       sodipodi:nodetypes="cccccccccccccccccccccccccccccccccccccccc" /></g><g
     id="g2"
     inkscape:label="wK-nrh"
     style="display:none"><path
       style="display:inline;fill:#f9f9f9;fill-opacity:1;stroke:none;stroke-width:12;stroke-linecap:square;stroke-dasharray:none;stroke-opacity:1"
       d="m 6416.7332,2596.7371 39.1615,-122.3455 200.5862,-39.8824 53.0274,-161.1319 -190.2804,-397.9815 119.546,-58.4324 128.2589,-35.4136 28.2938,-133.8971 -54.6201,-53.795 75.7935,-135.5413 75.7935,135.5413 -54.6201,53.795 28.2938,133.8971 128.2589,35.4136 119.546,58.4324 -190.2804,397.9815 53.0274,161.1319 200.5862,39.8824 39.1615,122.3455 z"
       id="path17"
       sodipodi:nodetypes="cccccccccccccccccccc"
       inkscape:label="fondo" /><g
       id="g1"
       inkscape:label="sombras"><path
         style="display:inline;fill:#cccccc;fill-opacity:1;stroke:none;stroke-width:12;stroke-linecap:square;stroke-dasharray:none;stroke-opacity:1"
         d="m 6933.9617,1807.0131 -35.2267,45.7847 68.2049,11.13 68.4859,40.557 -168.7321,361.1345 63.4268,203.9654 165.5468,25.717 27.1695,98.315 98.8408,2.6138 -46.2819,-119.0572 -203.1156,-42.4119 -50.0294,-163.9145 191.592,-398.15 -110.6456,-50.9281 z"
         id="path27"
         sodipodi:insensitive="true" /><path
         style="display:inline;fill:#cccccc;fill-opacity:1;stroke:none;stroke-width:12;stroke-linecap:square;stroke-dasharray:none;stroke-opacity:1"
         d="m 6656.0362,2431.2199 215.0125,55.3535 -415.177,-8.8521 z"
         id="path28"
         sodipodi:nodetypes="cccc" /><path
         style="display:inline;fill:#cccccc;fill-opacity:1;stroke:none;stroke-width:12;stroke-linecap:square;stroke-dasharray:none;stroke-opacity:1"
         d="m 6688.0306,2228.8144 111.3952,43.761 -86.7085,-0.6323 z"
         id="path29"
         sodipodi:nodetypes="cccc" /><path
         style="display:inline;fill:#cccccc;fill-opacity:1;stroke:none;stroke-width:12;stroke-linecap:square;stroke-dasharray:none;stroke-opacity:1"
         d="m 6819.0009,1463.3334 -5.4339,328.8406 48.6241,-12.3948 -27.638,-133.4755 57.056,-50.0007 z"
         id="path25" /><path
         style="display:none;fill:#cccccc;fill-opacity:1;stroke:none;stroke-width:12;stroke-linecap:square;stroke-dasharray:none;stroke-opacity:1"
         d="m 7111.167,1878.0942 -125.542,-6.3239 -45.8133,16.1048 -111.3483,420.705 -119.0307,-30.3967 -13.3506,34.2332 107.4603,60.8776 160.2533,36.257 45.9539,184.9516 c 0,0 207.1442,13.491 202.5535,0.1687 -4.5906,-13.3223 -24.6832,-119.4481 -37.2877,-121.9239 l -199.1808,-39.1237 -51.8094,-159.9093 z"
         id="path26"
         sodipodi:nodetypes="cccccccccssccc" /></g><g
       id="g22"
       inkscape:label="face"
       transform="matrix(1.9435496,0,0,1.9363645,-5905.0497,-1716.7618)"
       style="display:none;opacity:1;stroke-width:0.515476"><path
         style="fill:#cccccc;fill-opacity:1;stroke:#000000;stroke-width:6.495;stroke-linecap:round;stroke-linejoin:round;stroke-dasharray:none;stroke-opacity:1"
         d="m 6484.8963,1859.456 c -6.945,15.9536 -4.0311,34.4126 0.1493,53.1934 l 36.9466,-23.2581 z m 120.599,0 c 6.945,15.9536 4.0311,34.4126 -0.1493,53.1934 l -36.9466,-23.2581 z"
         id="path18"
         sodipodi:nodetypes="cccc"
         inkscape:path-effect="#path-effect23"
         inkscape:original-d="m 6484.8963,1859.456 c -6.945,15.9536 -4.0311,34.4126 0.1493,53.1934 l 36.9466,-23.2581 z"
         transform="translate(0,28.920168)" /><path
         style="fill:#000000;stroke:none;stroke-width:6.495;stroke-linecap:round;stroke-linejoin:round;stroke-dasharray:none"
         d="m 6482.4564,1992.1929 65.5701,-37.6431 65.5701,37.6431 -65.5701,-17.7013 z"
         id="path19"
         sodipodi:nodetypes="ccccc" /><path
         style="display:none;fill:#1a1a1a;stroke:none;stroke-width:6.495;stroke-linecap:round;stroke-linejoin:round;stroke-dasharray:none"
         d="m 6526.5487,1939.7829 2.4118,-6.9871 13.0098,-7.51 5.1933,7.3991 -4.6828,3.4381 -8.9255,3.961 z m 42.8318,0 -2.4118,-6.9871 -13.0098,-7.51 -5.1933,7.3991 4.6828,3.4381 8.9255,3.961 z"
         id="path20"
         inkscape:label="nariz-rey" /><path
         id="path21"
         style="display:inline;fill:#1a1a1a;stroke:none;stroke-width:6.495;stroke-linecap:round;stroke-linejoin:round;stroke-dasharray:none"
         d="m 6552.9545,1990.3654 -4.2949,0.012 -5.4082,2.123 -5.6641,0.061 -5.9199,-0.9512 -3.8711,2.414 -6.1797,6.2403 -8.5957,2.3183 2.5137,2.2871 2.5586,2.2735 4.5859,2.3652 3.2559,3.3164 3.7402,3.2324 6.8535,2.2227 12.2051,0.623 7.3379,0.076 6.1562,-4.8437 3.7481,-2.8418 6.373,-4.5977 4.4746,-4.498 -2.8886,-0.2305 -4.5489,-1.4844 -10.4824,-6.3125 z m -2.5078,10.42 4.5566,1.7929 2.7012,1.4121 3.5234,1.6133 2.4395,1.3223 c 0,0 -2.092,0.9903 -2.6895,1.1191 -0.5976,0.1289 -4.1264,2.1344 -4.8359,2.336 -0.7096,0.2017 -3.7149,0.2461 -3.7149,0.2461 l -3.1679,-0.8672 c 0,0 -2.2788,-0.7839 -2.8887,-0.6719 -0.61,0.1121 -2.3212,1.5787 -3.1055,1.5059 -0.7842,-0.073 -3.9589,-0.8907 -3.9589,-0.8907 l -2.9434,-1.916 -2.291,-0.123 -2.6074,-0.3926 -3.1817,-1.6797 2.4707,-2.9512 4.1836,-1.3164 3.168,0.9297 3.0801,1.377 4.0273,-1.0352 2.0117,-1.6973 z" /><path
         style="display:inline;fill:#000000;fill-opacity:1;stroke:none;stroke-width:2.78357;stroke-linecap:round;stroke-linejoin:round;stroke-dasharray:none;stroke-opacity:1"
         d="m 6797.8237,2005.2116 18.3598,50.2381 18.3599,-50.2381 z"
         id="path22"
         sodipodi:nodetypes="cccc"
         transform="translate(-270.37342,64.279769)" /></g><path
       style="display:inline;fill:none;fill-opacity:1;stroke:#000000;stroke-width:12;stroke-linecap:square;stroke-dasharray:none;stroke-opacity:1"
       d="m 6416.7332,2596.7371 39.1615,-122.3455 200.5862,-39.8824 53.0274,-161.1319 -190.2804,-397.9815 119.546,-58.4324 128.2589,-35.4136 28.2938,-133.8971 -54.6201,-53.795 75.7935,-135.5413 75.7935,135.5413 -54.6201,53.795 28.2938,133.8971 128.2589,35.4136 119.546,58.4324 -190.2804,397.9815 53.0274,161.1319 200.5862,39.8824 39.1615,122.3455 z"
       id="path24"
       sodipodi:nodetypes="cccccccccccccccccccc"
       inkscape:label="silueta" /></g><g
     id="g41"
     inkscape:label="wK-2"
     style="display:none"
     sodipodi:insensitive="true"><path
       style="display:inline;fill:#f9f9f9;fill-opacity:1;stroke:none;stroke-width:24;stroke-linecap:square;stroke-dasharray:none;stroke-opacity:1"
       d="m 6416.7332,2596.7371 39.1615,-122.3455 200.5862,-39.8824 53.0274,-161.1319 -190.2804,-397.9815 119.546,-58.4324 128.2589,-35.4136 28.2938,-63.8971 -54.6201,-53.795 75.7935,-135.5413 75.7935,135.5413 -54.6201,53.795 28.2938,63.8971 128.2589,35.4136 119.546,58.4324 -190.2804,397.9815 53.0274,161.1319 200.5862,39.8824 39.1615,122.3455 z"
       id="path41"
       sodipodi:nodetypes="cccccccccccccccccccc"
       inkscape:label="fondo" /><g
       id="g43"
       style="display:inline;fill:#cccccc;fill-opacity:1"
       inkscape:label="sombras-2"><path
         style="display:inline;fill:#cccccc;fill-opacity:1;stroke:none;stroke-width:12;stroke-linecap:square;stroke-dasharray:none;stroke-opacity:1"
         d="m 6933.9617,1807.0131 -101.2267,45.7847 68.2049,11.13 68.4859,40.557 -165.3821,369.1744 65.3164,211.3867 160.3072,10.2558 27.1695,98.315 164.8408,2.6138 -46.2819,-119.0572 -203.1156,-42.4119 -50.0294,-163.9145 191.592,-398.15 -110.6456,-50.9281 z"
         id="path31"
         sodipodi:insensitive="true"
         sodipodi:nodetypes="ccccccccccccccc" /><g
         id="g42"
         style="fill:#cccccc;fill-opacity:1"><path
           style="display:inline;fill:#cccccc;fill-opacity:1;stroke:none;stroke-width:12;stroke-linecap:square;stroke-dasharray:none;stroke-opacity:1"
           d="m 6656.0362,2431.2199 215.0125,55.3535 -415.177,-8.8521 z"
           id="path32"
           sodipodi:nodetypes="cccc" /><path
           style="display:inline;fill:#cccccc;fill-opacity:1;stroke:none;stroke-width:12;stroke-linecap:square;stroke-dasharray:none;stroke-opacity:1"
           d="m 6688.0306,2228.8144 111.3952,43.761 -86.7085,-0.6323 z"
           id="path33"
           sodipodi:nodetypes="cccc" /><path
           style="display:inline;fill:#cccccc;fill-opacity:1;stroke:none;stroke-width:24;stroke-linecap:square;stroke-dasharray:none"
           d="m 6521.7606,1880.0342 285.6057,9.5085 -244.6332,-36.5657 z"
           id="path44"
           sodipodi:nodetypes="cccc" /></g><path
         style="display:inline;fill:#cccccc;fill-opacity:1;stroke:none;stroke-width:12;stroke-linecap:square;stroke-dasharray:none;stroke-opacity:1"
         d="m 6815.9486,1526.6279 v 265.8825 l 64.3072,3.0223 -40.4701,-79.207 50.889,-51.3462 z"
         id="path34"
         sodipodi:nodetypes="cccccc"
         inkscape:label="sombra-punta" /></g><g
       id="g35"
       inkscape:label="sombras"
       style="display:none"><path
         style="display:inline;fill:#cccccc;fill-opacity:1;stroke:none;stroke-width:12;stroke-linecap:square;stroke-dasharray:none;stroke-opacity:1"
         d="m 7111.167,1878.0942 -156.3145,-11.3135 -60.8881,23.6732 -65.501,418.1262 -120.4634,-33.7044 -10.1737,77.7938 121.4138,59.3639 199.6221,38.6677 27.0794,143.8017 c 0,0 170.9522,13.491 166.3615,0.1687 -4.5906,-13.3223 -24.6832,-119.4481 -37.2877,-121.9239 l -195.5056,-39.7964 -55.4846,-159.2366 z"
         id="path35"
         sodipodi:nodetypes="cccccccccssccc"
         inkscape:label="body" /><path
         style="display:inline;fill:#cccccc;fill-opacity:1;stroke:none;stroke-width:12;stroke-linecap:square;stroke-dasharray:none;stroke-opacity:1"
         d="m 6815.9486,1526.6279 v 265.8825 l 64.3072,3.0223 -40.4701,-79.207 50.889,-51.3462 z"
         id="path43"
         sodipodi:nodetypes="cccccc"
         inkscape:label="sombra-punta" /></g><g
       id="g40"
       inkscape:label="face"
       transform="matrix(1.9435496,0,0,1.9363645,-5905.0497,-1716.7618)"
       style="display:none;opacity:1;stroke-width:0.515476"><path
         style="fill:#cccccc;fill-opacity:1;stroke:#000000;stroke-width:6.495;stroke-linecap:round;stroke-linejoin:round;stroke-dasharray:none;stroke-opacity:1"
         d="m 6484.8963,1859.456 c -6.945,15.9536 -4.0311,34.4126 0.1493,53.1934 l 36.9466,-23.2581 z m 120.599,0 c 6.945,15.9536 4.0311,34.4126 -0.1493,53.1934 l -36.9466,-23.2581 z"
         id="path36"
         sodipodi:nodetypes="cccc"
         inkscape:path-effect="#path-effect42"
         inkscape:original-d="m 6484.8963,1859.456 c -6.945,15.9536 -4.0311,34.4126 0.1493,53.1934 l 36.9466,-23.2581 z"
         transform="translate(0,28.920168)" /><path
         style="fill:#000000;stroke:none;stroke-width:6.495;stroke-linecap:round;stroke-linejoin:round;stroke-dasharray:none"
         d="m 6482.4564,1992.1929 65.5701,-37.6431 65.5701,37.6431 -65.5701,-17.7013 z"
         id="path37"
         sodipodi:nodetypes="ccccc" /><path
         style="display:none;fill:#1a1a1a;stroke:none;stroke-width:6.495;stroke-linecap:round;stroke-linejoin:round;stroke-dasharray:none"
         d="m 6526.5487,1939.7829 2.4118,-6.9871 13.0098,-7.51 5.1933,7.3991 -4.6828,3.4381 -8.9255,3.961 z m 42.8318,0 -2.4118,-6.9871 -13.0098,-7.51 -5.1933,7.3991 4.6828,3.4381 8.9255,3.961 z"
         id="path38"
         inkscape:label="nariz-rey" /><path
         id="path39"
         style="display:inline;fill:#1a1a1a;stroke:none;stroke-width:6.495;stroke-linecap:round;stroke-linejoin:round;stroke-dasharray:none"
         d="m 6552.9545,1990.3654 -4.2949,0.012 -5.4082,2.123 -5.6641,0.061 -5.9199,-0.9512 -3.8711,2.414 -6.1797,6.2403 -8.5957,2.3183 2.5137,2.2871 2.5586,2.2735 4.5859,2.3652 3.2559,3.3164 3.7402,3.2324 6.8535,2.2227 12.2051,0.623 7.3379,0.076 6.1562,-4.8437 3.7481,-2.8418 6.373,-4.5977 4.4746,-4.498 -2.8886,-0.2305 -4.5489,-1.4844 -10.4824,-6.3125 z m -2.5078,10.42 4.5566,1.7929 2.7012,1.4121 3.5234,1.6133 2.4395,1.3223 c 0,0 -2.092,0.9903 -2.6895,1.1191 -0.5976,0.1289 -4.1264,2.1344 -4.8359,2.336 -0.7096,0.2017 -3.7149,0.2461 -3.7149,0.2461 l -3.1679,-0.8672 c 0,0 -2.2788,-0.7839 -2.8887,-0.6719 -0.61,0.1121 -2.3212,1.5787 -3.1055,1.5059 -0.7842,-0.073 -3.9589,-0.8907 -3.9589,-0.8907 l -2.9434,-1.916 -2.291,-0.123 -2.6074,-0.3926 -3.1817,-1.6797 2.4707,-2.9512 4.1836,-1.3164 3.168,0.9297 3.0801,1.377 4.0273,-1.0352 2.0117,-1.6973 z" /><path
         style="display:inline;fill:#000000;fill-opacity:1;stroke:none;stroke-width:2.78357;stroke-linecap:round;stroke-linejoin:round;stroke-dasharray:none;stroke-opacity:1"
         d="m 6797.8237,2005.2116 18.3598,50.2381 18.3599,-50.2381 z"
         id="path40"
         sodipodi:nodetypes="cccc"
         transform="translate(-270.37342,64.279769)" /></g><path
       style="display:inline;fill:none;fill-opacity:1;stroke:#000000;stroke-width:24;stroke-linecap:square;stroke-dasharray:none;stroke-opacity:1"
       d="m 6416.7332,2596.7371 39.1615,-122.3455 200.5862,-39.8824 53.0274,-161.1319 -190.2804,-397.9815 119.546,-58.4324 128.2589,-35.4136 28.2938,-63.8971 -54.6201,-53.795 75.7935,-135.5413 75.7935,135.5413 -54.6201,53.795 28.2938,63.8971 128.2589,35.4136 119.546,58.4324 -190.2804,397.9815 53.0274,161.1319 200.5862,39.8824 39.1615,122.3455 c -267.8214,-7.9924 -533.0573,-0.2127 -799.5336,0 z"
       id="path42"
       sodipodi:nodetypes="cccccccccccccccccccc"
       inkscape:label="silueta" /></g><g
     id="g58"
     inkscape:label="wK-3"
     style="display:inline"><path
       style="display:inline;fill:#f9f9f9;fill-opacity:1;stroke:none;stroke-width:24;stroke-linecap:square;stroke-dasharray:none;stroke-opacity:1"
       d="m 6716.8272,1683.8577 99.6728,-135.5413 99.6728,135.5413 -99.6728,136.0483 z m 277.3989,227.1057 79.1747,58.4324 -145.1254,303.9815 48.2437,161.1319 200.5862,39.8824 39.1615,122.3455 c -267.8214,-7.9924 -533.0573,-0.2127 -799.5336,0 l 39.1615,-122.3455 200.5862,-39.8824 48.2437,-161.1319 -145.1254,-303.9815 79.1747,-58.4324 c 0,0 117.3194,-35.4136 177.7261,-35.4136 60.4067,0 177.7261,35.4136 177.7261,35.4136 z"
       id="path58"
       sodipodi:nodetypes="ccccccccccccccccczc"
       inkscape:label="fondo" /><g
       id="g50"
       style="display:none;fill:#cccccc;fill-opacity:1"
       inkscape:label="sombras-2"><path
         style="display:inline;fill:#cccccc;fill-opacity:1;stroke:none;stroke-width:12;stroke-linecap:square;stroke-dasharray:none;stroke-opacity:1"
         d="m 6933.9617,1807.0131 -101.2267,45.7847 68.2049,11.13 68.4859,40.557 -165.3821,369.1744 65.3164,211.3867 160.3072,10.2558 27.1695,98.315 164.8408,2.6138 -46.2819,-119.0572 -203.1156,-42.4119 -50.0294,-163.9145 191.592,-398.15 -110.6456,-50.9281 z"
         id="path46"
         sodipodi:insensitive="true"
         sodipodi:nodetypes="ccccccccccccccc" /><g
         id="g49"
         style="fill:#cccccc;fill-opacity:1"><path
           style="display:inline;fill:#cccccc;fill-opacity:1;stroke:none;stroke-width:12;stroke-linecap:square;stroke-dasharray:none;stroke-opacity:1"
           d="m 6656.0362,2431.2199 215.0125,55.3535 -415.177,-8.8521 z"
           id="path47"
           sodipodi:nodetypes="cccc" /><path
           style="display:inline;fill:#cccccc;fill-opacity:1;stroke:none;stroke-width:12;stroke-linecap:square;stroke-dasharray:none;stroke-opacity:1"
           d="m 6688.0306,2228.8144 111.3952,43.761 -86.7085,-0.6323 z"
           id="path48"
           sodipodi:nodetypes="cccc" /><path
           style="display:inline;fill:#cccccc;fill-opacity:1;stroke:none;stroke-width:24;stroke-linecap:square;stroke-dasharray:none"
           d="m 6521.7606,1880.0342 285.6057,9.5085 -244.6332,-36.5657 z"
           id="path49"
           sodipodi:nodetypes="cccc" /></g><path
         style="display:inline;fill:#cccccc;fill-opacity:1;stroke:none;stroke-width:12;stroke-linecap:square;stroke-dasharray:none;stroke-opacity:1"
         d="m 6815.9486,1526.6279 v 265.8825 l 64.3072,3.0223 -40.4701,-79.207 50.889,-51.3462 z"
         id="path50"
         sodipodi:nodetypes="cccccc"
         inkscape:label="sombra-punta" /></g><g
       id="g52"
       inkscape:label="sombras"
       style="display:inline"><path
         style="display:inline;fill:#cccccc;fill-opacity:1;stroke:none;stroke-width:12;stroke-linecap:square;stroke-dasharray:none;stroke-opacity:1"
         d="m 7069.8508,1971.0157 -77.2898,-58.7018 -90.6941,-11.2691 -83.4534,389.9097 -110.4135,-16.0788 -10.1737,77.7938 121.4138,59.3639 199.6221,38.6677 27.0794,143.8017 c 0,0 170.9522,13.491 166.3615,0.1687 -4.5906,-13.3223 -24.6832,-119.4481 -37.2877,-121.9239 l -195.5056,-39.7964 -55.4846,-159.2366 z"
         id="path51"
         sodipodi:nodetypes="cccccccccssccc"
         inkscape:label="body" /><path
         style="display:inline;fill:#cccccc;fill-opacity:1;stroke:none;stroke-width:12;stroke-linecap:square;stroke-dasharray:none;stroke-opacity:1"
         d="m 6818.8691,1555.0764 -0.9448,258.0746 95.6847,-128.9224 z"
         id="path52"
         sodipodi:nodetypes="cccc"
         inkscape:label="sombra-punta" /></g><g
       id="g57"
       inkscape:label="face"
       transform="matrix(1.9435496,0,0,1.9363645,-5905.0497,-1716.7618)"
       style="display:none;opacity:1;stroke-width:0.515476"><path
         style="fill:#cccccc;fill-opacity:1;stroke:#000000;stroke-width:6.495;stroke-linecap:round;stroke-linejoin:round;stroke-dasharray:none;stroke-opacity:1"
         d="m 6484.8963,1859.456 c -6.945,15.9536 -4.0311,34.4126 0.1493,53.1934 l 36.9466,-23.2581 z m 120.599,0 c 6.945,15.9536 4.0311,34.4126 -0.1493,53.1934 l -36.9466,-23.2581 z"
         id="path53"
         sodipodi:nodetypes="cccc"
         inkscape:path-effect="#path-effect59"
         inkscape:original-d="m 6484.8963,1859.456 c -6.945,15.9536 -4.0311,34.4126 0.1493,53.1934 l 36.9466,-23.2581 z"
         transform="translate(0,28.920168)" /><path
         style="fill:#000000;stroke:none;stroke-width:6.495;stroke-linecap:round;stroke-linejoin:round;stroke-dasharray:none"
         d="m 6482.4564,1992.1929 65.5701,-37.6431 65.5701,37.6431 -65.5701,-17.7013 z"
         id="path54"
         sodipodi:nodetypes="ccccc" /><path
         style="display:none;fill:#1a1a1a;stroke:none;stroke-width:6.495;stroke-linecap:round;stroke-linejoin:round;stroke-dasharray:none"
         d="m 6526.5487,1939.7829 2.4118,-6.9871 13.0098,-7.51 5.1933,7.3991 -4.6828,3.4381 -8.9255,3.961 z m 42.8318,0 -2.4118,-6.9871 -13.0098,-7.51 -5.1933,7.3991 4.6828,3.4381 8.9255,3.961 z"
         id="path55"
         inkscape:label="nariz-rey" /><path
         id="path56"
         style="display:inline;fill:#1a1a1a;stroke:none;stroke-width:6.495;stroke-linecap:round;stroke-linejoin:round;stroke-dasharray:none"
         d="m 6552.9545,1990.3654 -4.2949,0.012 -5.4082,2.123 -5.6641,0.061 -5.9199,-0.9512 -3.8711,2.414 -6.1797,6.2403 -8.5957,2.3183 2.5137,2.2871 2.5586,2.2735 4.5859,2.3652 3.2559,3.3164 3.7402,3.2324 6.8535,2.2227 12.2051,0.623 7.3379,0.076 6.1562,-4.8437 3.7481,-2.8418 6.373,-4.5977 4.4746,-4.498 -2.8886,-0.2305 -4.5489,-1.4844 -10.4824,-6.3125 z m -2.5078,10.42 4.5566,1.7929 2.7012,1.4121 3.5234,1.6133 2.4395,1.3223 c 0,0 -2.092,0.9903 -2.6895,1.1191 -0.5976,0.1289 -4.1264,2.1344 -4.8359,2.336 -0.7096,0.2017 -3.7149,0.2461 -3.7149,0.2461 l -3.1679,-0.8672 c 0,0 -2.2788,-0.7839 -2.8887,-0.6719 -0.61,0.1121 -2.3212,1.5787 -3.1055,1.5059 -0.7842,-0.073 -3.9589,-0.8907 -3.9589,-0.8907 l -2.9434,-1.916 -2.291,-0.123 -2.6074,-0.3926 -3.1817,-1.6797 2.4707,-2.9512 4.1836,-1.3164 3.168,0.9297 3.0801,1.377 4.0273,-1.0352 2.0117,-1.6973 z" /><path
         style="display:inline;fill:#000000;fill-opacity:1;stroke:none;stroke-width:2.78357;stroke-linecap:round;stroke-linejoin:round;stroke-dasharray:none;stroke-opacity:1"
         d="m 6797.8237,2005.2116 18.3598,50.2381 18.3599,-50.2381 z"
         id="path57"
         sodipodi:nodetypes="cccc"
         transform="translate(-270.37342,64.279769)" /></g><path
       style="display:inline;fill:none;fill-opacity:1;stroke:#000000;stroke-width:24;stroke-linecap:square;stroke-dasharray:none;stroke-opacity:1"
       d="m 6716.8272,1683.8577 99.6728,-135.5413 99.6728,135.5413 -99.6728,136.0483 z m 277.3989,227.1057 79.1747,58.4324 -145.1254,303.9815 48.2437,161.1319 200.5862,39.8824 39.1615,122.3455 c -267.8214,-7.9924 -533.0573,-0.2127 -799.5336,0 l 39.1615,-122.3455 200.5862,-39.8824 48.2437,-161.1319 -145.1254,-303.9815 79.1747,-58.4324 c 0,0 117.3194,-35.4136 177.7261,-35.4136 60.4067,0 177.7261,35.4136 177.7261,35.4136 z"
       id="path59"
       sodipodi:nodetypes="ccccccccccccccccczc"
       inkscape:label="silueta" /></g></svg>
